<svg width="178" height="236" viewBox="0 0 178 236" fill="none" xmlns="http://www.w3.org/2000/svg">
<g filter="url(#filter0_d_2456_272)">
<path d="M60 176L178 60.6221V176H60Z" fill="#F9423A"/>
<path d="M145.227 123.555C148 123.557 150.737 124.186 153.231 125.396C155.726 126.606 157.914 128.365 159.631 130.542C161.349 132.718 162.551 135.254 163.148 137.961C163.744 140.668 163.72 143.475 163.076 146.172C162.433 148.868 161.186 151.383 159.431 153.529C157.676 155.675 155.458 157.396 152.943 158.562C150.427 159.729 147.68 160.31 144.908 160.264C142.136 160.217 139.41 159.543 136.935 158.293L136.657 158.144L128.292 160.232C128.131 160.272 127.963 160.277 127.8 160.247C127.637 160.216 127.482 160.15 127.347 160.054C127.212 159.958 127.099 159.834 127.016 159.69C126.934 159.546 126.883 159.385 126.869 159.22V159.032L126.901 158.841L128.99 150.481L128.845 150.205C127.795 148.138 127.148 145.89 126.94 143.581L126.883 142.705L126.867 141.911C126.867 137.043 128.801 132.374 132.244 128.932C135.688 125.489 140.358 123.555 145.227 123.555ZM146.375 144.205H139.49L139.283 144.224C139.019 144.272 138.779 144.411 138.607 144.617C138.434 144.823 138.34 145.084 138.34 145.353C138.34 145.621 138.434 145.882 138.607 146.088C138.779 146.294 139.019 146.434 139.283 146.481L139.49 146.5H146.375L146.582 146.481C146.846 146.434 147.085 146.294 147.258 146.088C147.43 145.882 147.525 145.621 147.525 145.353C147.525 145.084 147.43 144.823 147.258 144.617C147.085 144.411 146.846 144.272 146.582 144.224L146.375 144.205ZM150.965 137.322H139.49L139.283 137.34C139.019 137.388 138.779 137.528 138.607 137.734C138.434 137.94 138.34 138.2 138.34 138.469C138.34 138.738 138.434 138.998 138.607 139.205C138.779 139.411 139.019 139.55 139.283 139.598L139.49 139.616H150.965L151.172 139.598C151.436 139.55 151.676 139.411 151.848 139.205C152.02 138.998 152.115 138.738 152.115 138.469C152.115 138.2 152.02 137.94 151.848 137.734C151.676 137.528 151.436 137.388 151.172 137.34L150.965 137.322Z" fill="white"/>
</g>
<defs>
<filter id="filter0_d_2456_272" x="0" y="0.62207" width="238" height="235.378" filterUnits="userSpaceOnUse" color-interpolation-filters="sRGB">
<feFlood flood-opacity="0" result="BackgroundImageFix"/>
<feColorMatrix in="SourceAlpha" type="matrix" values="0 0 0 0 0 0 0 0 0 0 0 0 0 0 0 0 0 0 127 0" result="hardAlpha"/>
<feOffset/>
<feGaussianBlur stdDeviation="30"/>
<feColorMatrix type="matrix" values="0 0 0 0 0.188235 0 0 0 0 0.192157 0 0 0 0 0.2 0 0 0 0.3 0"/>
<feBlend mode="normal" in2="BackgroundImageFix" result="effect1_dropShadow_2456_272"/>
<feBlend mode="normal" in="SourceGraphic" in2="effect1_dropShadow_2456_272" result="shape"/>
</filter>
</defs>
</svg>
