<svg width="20" height="17" viewBox="0 0 20 17" fill="none" xmlns="http://www.w3.org/2000/svg">
<path d="M0.151306 8.5C0.151306 8.10218 0.351485 7.72064 0.707804 7.43934C1.06412 7.15804 1.54739 7 2.05131 7H17.2513C17.7552 7 18.2385 7.15804 18.5948 7.43934C18.9511 7.72064 19.1513 8.10218 19.1513 8.5C19.1513 8.89782 18.9511 9.27936 18.5948 9.56066C18.2385 9.84196 17.7552 10 17.2513 10H2.05131C1.54739 10 1.06412 9.84196 0.707804 9.56066C0.351485 9.27936 0.151306 8.89782 0.151306 8.5Z" fill="white"/>
<path d="M12.5757 1.29664C12.3613 1.08232 12.0706 0.961909 11.7675 0.961909C11.4644 0.961909 11.1738 1.08232 10.9594 1.29664C10.7451 1.51097 10.6247 1.80165 10.6247 2.10476C10.6247 2.40786 10.7451 2.69855 10.9594 2.91287L17.4243 9.37779C17.6387 9.59212 17.9294 9.71253 18.2325 9.71253C18.5356 9.71253 18.8263 9.59212 19.0406 9.3778C19.2549 9.16347 19.3753 8.87278 19.3753 8.56968C19.3753 8.26658 19.2549 7.97589 19.0406 7.76156L12.5757 1.29664Z" fill="white"/>
<path d="M10.9594 15.7034C10.7451 15.4891 10.6247 15.1984 10.6247 14.8953C10.6247 14.5922 10.7451 14.3015 10.9594 14.0871L17.4244 7.62222C17.6387 7.4079 17.9294 7.28749 18.2325 7.28749C18.5356 7.28749 18.8263 7.4079 19.0406 7.62222C19.2549 7.83655 19.3753 8.12724 19.3753 8.43034C19.3753 8.73344 19.2549 9.02413 19.0406 9.23845L12.5757 15.7034C12.3613 15.9177 12.0707 16.0381 11.7676 16.0381C11.4645 16.0381 11.1738 15.9177 10.9594 15.7034Z" fill="white"/>
</svg>
